<?xml version="1.0" encoding="iso-8859-1"?>
<!-- Uploaded to: SVG Repo, www.svgrepo.com, Generator: SVG Repo Mixer Tools -->
<svg fill="#000000" height="800px" width="800px" version="1.1" id="Layer_1" xmlns="http://www.w3.org/2000/svg" xmlns:xlink="http://www.w3.org/1999/xlink" 
	 viewBox="0 0 487.9 487.9" xml:space="preserve">
<g transform="translate(0 -540.36)">
	<g>
		<g>
			<path d="M111.6,852.725c-28.6,0-51,22.4-51,51s22.4,51,51,51c28.2,0,51-22.9,51-51S139.7,852.725,111.6,852.725z M111.6,935.025
				c-17.3,0-30.9-13.7-30.9-31.2s13.6-31.2,30.9-31.2c17.1,0,30.9,14,30.9,31.2S128.6,935.025,111.6,935.025z"/>
			<path d="M365.6,852.725c-28.6,0-51,22.4-51,51s22.4,51,51,51c28.6,0,51-22.4,51-51S394.2,852.725,365.6,852.725z M365.6,935.025
				c-17.3,0-30.9-13.7-30.9-31.2s13.6-31.2,30.9-31.2s30.9,13.7,30.9,31.2S382.9,935.025,365.6,935.025z"/>
			<path d="M437.2,799.525c5.5,0,10-4.5,10-10v-82.8c0-5.6-4.5-10-10-10H324.9c-5.5,0-10,4.5-10,10v82.8c0,5.5,4.5,10,10,10H437.2z
				 M406.5,716.725h20.7v62.8h-20.7V716.725z M334.9,716.725h51.6v62.8h-51.6V716.725z"/>
			<path d="M477.9,655.325L477.9,655.325l-193.7,0c-5.5,0-10,4.5-10,10v228.5h-20.7v-269.9c0-3.5-1.8-6.8-4.8-8.6s-6.7-1.9-9.8-0.3
				L5.3,739.225c-3.3,1.7-5.3,5.1-5.3,8.8v155.7c0,5.5,4.5,10,10,10h20.3c5.5,0,10-4.5,10-10s-4.5-10-10-10H19.9v-139.6l35-18.6
				l-13.9,51.4c-1.4,5.3,1.7,10.8,7,12.3c0.9,0.2,1.8,0.4,2.6,0.4c4.4,0,8.4-2.9,9.6-7.4l18.8-69.5l37.4-19.9l-14.5,53.5
				c-1.4,5.3,1.7,10.8,7,12.3c0.9,0.2,1.8,0.4,2.6,0.4c4.4,0,8.4-2.9,9.6-7.4l19.4-71.6l37.8-20.1l-15.6,66.1
				c-1.3,5.4,2.1,10.8,7.4,12c0.8,0.2,1.5,0.3,2.3,0.3c4.5,0,8.6-3.1,9.7-7.7l19.5-82.8c0-0.1,0-0.3,0.1-0.4l31.5-16.7v253.2h-40.5
				c-5.5,0-10,4.5-10,10s4.5,10,10,10h91.2c5.5,0,10-4.5,10-10v-228.6h174v218.5H447c-5.5,0-10,4.5-10,10s4.5,10,10,10h30.9
				c5.5,0,10-4.5,10-10v-238.5C487.9,659.825,483.4,655.325,477.9,655.325z"/>
		</g>
	</g>
</g>
</svg>