<svg width="32" height="32" viewBox="0 0 32 32" fill="none" xmlns="http://www.w3.org/2000/svg">
<path d="M2.00614 10.5989C0.424342 19.6771 0.630664 21.8779 3.1753 23.2533C6.54522 25.1102 11.7033 23.3909 13.5602 19.8146C14.4109 18.7661 17.437 4.13419 17.5057 2.0022C16.732 2.0022 15.2107 2.0022 10.259 2.0022H3.58794L2.00614 10.5989Z" fill="#3195FD"/>
<path d="M17.5898 10.7366C16.4206 17.4764 15.6641 19.9523 14.2886 21.7404C11.8128 25.0415 8.92428 26.2795 4.9354 25.9356C1.63425 25.5917 1.63425 25.5917 2.80341 26.9672C8.99306 33.7758 21.7162 31.0249 26.4616 21.7404C27.2181 20.2961 28.5248 15.2756 29.4189 10.599L31.0007 2.00229H25.0174H19.1028L17.5898 10.7366Z" fill="#003399"/>
</svg>
