<svg width="250" height="60" viewBox="0 0 250 60" fill="none" xmlns="http://www.w3.org/2000/svg">
<g clip-path="url(#clip0_870_1258)">
<path d="M74.1132 39.35C72.0132 39.35 70.1699 39.0117 68.5832 38.335C67.0199 37.635 65.8065 36.5733 64.9432 35.15C64.0799 33.7033 63.6482 31.8717 63.6482 29.655V15.375C63.6482 15.1183 63.7299 14.9083 63.8932 14.745C64.0565 14.5817 64.2665 14.5 64.5232 14.5H69.0382C69.2949 14.5 69.5049 14.5817 69.6682 14.745C69.8315 14.9083 69.9132 15.1183 69.9132 15.375V29.62C69.9132 31.1367 70.2749 32.28 70.9982 33.05C71.7449 33.7967 72.7832 34.17 74.1132 34.17C75.4199 34.17 76.4349 33.7967 77.1582 33.05C77.9049 32.28 78.2782 31.1367 78.2782 29.62V15.375C78.2782 15.1183 78.3599 14.9083 78.5232 14.745C78.7099 14.5817 78.9199 14.5 79.1532 14.5H83.7032C83.9365 14.5 84.1349 14.5817 84.2982 14.745C84.4849 14.9083 84.5782 15.1183 84.5782 15.375V29.655C84.5782 31.8717 84.1465 33.7033 83.2832 35.15C82.4199 36.5733 81.2065 37.635 79.6432 38.335C78.0799 39.0117 76.2365 39.35 74.1132 39.35ZM90.0945 39C89.8379 39 89.6279 38.9183 89.4645 38.755C89.3012 38.5917 89.2195 38.3817 89.2195 38.125V15.375C89.2195 15.1183 89.3012 14.9083 89.4645 14.745C89.6279 14.5817 89.8379 14.5 90.0945 14.5H100.77C102.776 14.5 104.421 14.78 105.705 15.34C106.988 15.9 107.933 16.705 108.54 17.755C109.17 18.7817 109.485 20.0067 109.485 21.43C109.485 22.27 109.321 23.0167 108.995 23.67C108.691 24.3 108.306 24.825 107.84 25.245C107.396 25.665 106.976 25.9683 106.58 26.155C107.466 26.575 108.248 27.2633 108.925 28.22C109.625 29.1767 109.975 30.2967 109.975 31.58C109.975 33.12 109.625 34.45 108.925 35.57C108.248 36.6667 107.245 37.5183 105.915 38.125C104.608 38.7083 102.998 39 101.085 39H90.0945ZM95.4845 34.45H100.385C101.388 34.45 102.146 34.1583 102.66 33.575C103.173 32.9917 103.43 32.3267 103.43 31.58C103.43 30.7633 103.161 30.075 102.625 29.515C102.111 28.955 101.365 28.675 100.385 28.675H95.4845V34.45ZM95.4845 24.23H100.07C101.026 24.23 101.738 23.985 102.205 23.495C102.695 23.005 102.94 22.375 102.94 21.605C102.94 20.8583 102.695 20.2517 102.205 19.785C101.738 19.295 101.026 19.05 100.07 19.05H95.4845V24.23ZM112.121 39C111.935 39 111.76 38.93 111.596 38.79C111.456 38.6267 111.386 38.4517 111.386 38.265C111.386 38.1483 111.398 38.0433 111.421 37.95L119.646 15.48C119.716 15.2233 119.856 15.0017 120.066 14.815C120.3 14.605 120.615 14.5 121.011 14.5H126.191C126.588 14.5 126.891 14.605 127.101 14.815C127.335 15.0017 127.486 15.2233 127.556 15.48L135.746 37.95C135.793 38.0433 135.816 38.1483 135.816 38.265C135.816 38.4517 135.735 38.6267 135.571 38.79C135.431 38.93 135.256 39 135.046 39H130.741C130.391 39 130.123 38.9183 129.936 38.755C129.773 38.5683 129.668 38.405 129.621 38.265L128.256 34.695H118.911L117.581 38.265C117.535 38.405 117.43 38.5683 117.266 38.755C117.103 38.9183 116.823 39 116.426 39H112.121ZM120.346 29.655H126.856L123.566 20.415L120.346 29.655ZM139.45 39C139.193 39 138.983 38.9183 138.82 38.755C138.657 38.5917 138.575 38.3817 138.575 38.125V15.375C138.575 15.1183 138.657 14.9083 138.82 14.745C138.983 14.5817 139.193 14.5 139.45 14.5H148.97C151.98 14.5 154.348 15.2 156.075 16.6C157.825 17.9767 158.7 19.9367 158.7 22.48C158.7 24.1367 158.292 25.5367 157.475 26.68C156.682 27.8233 155.632 28.6867 154.325 29.27L159.155 37.88C159.225 38.02 159.26 38.1483 159.26 38.265C159.26 38.4517 159.178 38.6267 159.015 38.79C158.875 38.93 158.7 39 158.49 39H153.87C153.427 39 153.1 38.895 152.89 38.685C152.68 38.4517 152.528 38.2417 152.435 38.055L148.445 30.355H144.84V38.125C144.84 38.3817 144.758 38.5917 144.595 38.755C144.432 38.9183 144.222 39 143.965 39H139.45ZM144.84 25.42H148.9C149.997 25.42 150.813 25.1517 151.35 24.615C151.91 24.0783 152.19 23.3433 152.19 22.41C152.19 21.5 151.922 20.765 151.385 20.205C150.872 19.645 150.043 19.365 148.9 19.365H144.84V25.42ZM163.649 39C163.393 39 163.183 38.9183 163.019 38.755C162.856 38.5917 162.774 38.3817 162.774 38.125V15.375C162.774 15.1183 162.856 14.9083 163.019 14.745C163.183 14.5817 163.393 14.5 163.649 14.5H168.339C168.596 14.5 168.806 14.5817 168.969 14.745C169.133 14.9083 169.214 15.1183 169.214 15.375V38.125C169.214 38.3817 169.133 38.5917 168.969 38.755C168.806 38.9183 168.596 39 168.339 39H163.649ZM183.257 39.35C180.924 39.35 178.987 39.0233 177.447 38.37C175.907 37.6933 174.74 36.8183 173.947 35.745C173.154 34.6717 172.734 33.5283 172.687 32.315C172.687 32.1283 172.757 31.965 172.897 31.825C173.06 31.6617 173.247 31.58 173.457 31.58H177.867C178.194 31.58 178.439 31.6383 178.602 31.755C178.789 31.8717 178.952 32.0233 179.092 32.21C179.279 32.56 179.535 32.8983 179.862 33.225C180.212 33.5517 180.655 33.82 181.192 34.03C181.752 34.2167 182.44 34.31 183.257 34.31C184.61 34.31 185.625 34.1 186.302 33.68C187.002 33.26 187.352 32.6883 187.352 31.965C187.352 31.4517 187.165 31.0317 186.792 30.705C186.419 30.355 185.812 30.0517 184.972 29.795C184.155 29.515 183.059 29.235 181.682 28.955C179.909 28.5817 178.392 28.1033 177.132 27.52C175.895 26.9133 174.95 26.1317 174.297 25.175C173.644 24.195 173.317 22.9817 173.317 21.535C173.317 20.1117 173.714 18.84 174.507 17.72C175.324 16.6 176.455 15.725 177.902 15.095C179.349 14.465 181.064 14.15 183.047 14.15C184.657 14.15 186.069 14.36 187.282 14.78C188.519 15.2 189.557 15.76 190.397 16.46C191.237 17.16 191.867 17.9067 192.287 18.7C192.73 19.47 192.964 20.2283 192.987 20.975C192.987 21.1617 192.917 21.3367 192.777 21.5C192.637 21.64 192.462 21.71 192.252 21.71H187.632C187.375 21.71 187.154 21.6633 186.967 21.57C186.78 21.4767 186.617 21.325 186.477 21.115C186.337 20.6017 185.964 20.1583 185.357 19.785C184.774 19.3883 184.004 19.19 183.047 19.19C182.02 19.19 181.215 19.3767 180.632 19.75C180.072 20.1 179.792 20.6483 179.792 21.395C179.792 21.8617 179.944 22.27 180.247 22.62C180.574 22.97 181.099 23.2733 181.822 23.53C182.569 23.7867 183.584 24.055 184.867 24.335C186.99 24.7317 188.705 25.2333 190.012 25.84C191.319 26.4233 192.275 27.1933 192.882 28.15C193.489 29.0833 193.792 30.2617 193.792 31.685C193.792 33.2717 193.337 34.6483 192.427 35.815C191.54 36.9583 190.304 37.8333 188.717 38.44C187.13 39.0467 185.31 39.35 183.257 39.35ZM203.321 39C203.065 39 202.855 38.9183 202.691 38.755C202.528 38.5917 202.446 38.3817 202.446 38.125V19.995H196.216C195.96 19.995 195.75 19.9133 195.586 19.75C195.423 19.5633 195.341 19.3533 195.341 19.12V15.375C195.341 15.1183 195.423 14.9083 195.586 14.745C195.75 14.5817 195.96 14.5 196.216 14.5H215.046C215.303 14.5 215.513 14.5817 215.676 14.745C215.84 14.9083 215.921 15.1183 215.921 15.375V19.12C215.921 19.3533 215.84 19.5633 215.676 19.75C215.513 19.9133 215.303 19.995 215.046 19.995H208.816V38.125C208.816 38.3817 208.735 38.5917 208.571 38.755C208.408 38.9183 208.198 39 207.941 39H203.321ZM219.977 39C219.721 39 219.511 38.9183 219.347 38.755C219.184 38.5917 219.102 38.3817 219.102 38.125V15.375C219.102 15.1183 219.184 14.9083 219.347 14.745C219.511 14.5817 219.721 14.5 219.977 14.5H224.667C224.924 14.5 225.134 14.5817 225.297 14.745C225.461 14.9083 225.542 15.1183 225.542 15.375V38.125C225.542 38.3817 225.461 38.5917 225.297 38.755C225.134 38.9183 224.924 39 224.667 39H219.977Z" fill="#0F4585"/>
<path d="M174.497 60C174.377 60 174.269 59.958 174.173 59.874C174.089 59.79 174.047 59.682 174.047 59.55V47.85C174.047 47.718 174.089 47.61 174.173 47.526C174.269 47.442 174.377 47.4 174.497 47.4H176.441C176.633 47.4 176.777 47.454 176.873 47.562C176.981 47.658 177.047 47.736 177.071 47.796L180.239 53.484L183.407 47.796C183.443 47.736 183.503 47.658 183.587 47.562C183.683 47.454 183.833 47.4 184.037 47.4H185.963C186.095 47.4 186.203 47.442 186.287 47.526C186.383 47.61 186.431 47.718 186.431 47.85V59.55C186.431 59.682 186.383 59.79 186.287 59.874C186.203 59.958 186.095 60 185.963 60H183.821C183.689 60 183.575 59.958 183.479 59.874C183.395 59.79 183.353 59.682 183.353 59.55V52.8L181.319 56.562C181.271 56.67 181.199 56.766 181.103 56.85C181.007 56.934 180.875 56.976 180.707 56.976H179.771C179.603 56.976 179.471 56.934 179.375 56.85C179.279 56.766 179.201 56.67 179.141 56.562L177.107 52.8V59.55C177.107 59.682 177.065 59.79 176.981 59.874C176.897 59.958 176.789 60 176.657 60H174.497ZM191.546 60.18C190.898 60.18 190.316 60.06 189.8 59.82C189.296 59.568 188.894 59.232 188.594 58.812C188.294 58.392 188.144 57.918 188.144 57.39C188.144 56.538 188.492 55.866 189.188 55.374C189.884 54.87 190.808 54.528 191.96 54.348L194.21 54.006V53.754C194.21 53.322 194.12 52.992 193.94 52.764C193.76 52.536 193.43 52.422 192.95 52.422C192.614 52.422 192.338 52.488 192.122 52.62C191.918 52.752 191.756 52.932 191.636 53.16C191.528 53.316 191.378 53.394 191.186 53.394H189.17C189.038 53.394 188.936 53.358 188.864 53.286C188.792 53.202 188.762 53.106 188.774 52.998C188.774 52.782 188.852 52.536 189.008 52.26C189.176 51.972 189.428 51.69 189.764 51.414C190.1 51.138 190.532 50.91 191.06 50.73C191.588 50.55 192.224 50.46 192.968 50.46C193.748 50.46 194.414 50.55 194.966 50.73C195.518 50.91 195.962 51.162 196.298 51.486C196.646 51.81 196.904 52.194 197.072 52.638C197.24 53.07 197.324 53.55 197.324 54.078V59.55C197.324 59.682 197.276 59.79 197.18 59.874C197.096 59.958 196.994 60 196.874 60H194.786C194.654 60 194.546 59.958 194.462 59.874C194.378 59.79 194.336 59.682 194.336 59.55V58.92C194.18 59.148 193.97 59.358 193.706 59.55C193.442 59.742 193.13 59.892 192.77 60C192.422 60.12 192.014 60.18 191.546 60.18ZM192.392 58.128C192.74 58.128 193.052 58.056 193.328 57.912C193.616 57.756 193.838 57.522 193.994 57.21C194.162 56.886 194.246 56.484 194.246 56.004V55.752L192.716 56.022C192.152 56.118 191.738 56.268 191.474 56.472C191.222 56.664 191.096 56.892 191.096 57.156C191.096 57.36 191.156 57.534 191.276 57.678C191.396 57.822 191.552 57.936 191.744 58.02C191.936 58.092 192.152 58.128 192.392 58.128ZM199.805 60C199.673 60 199.565 59.958 199.481 59.874C199.397 59.79 199.355 59.682 199.355 59.55V51.09C199.355 50.97 199.397 50.868 199.481 50.784C199.565 50.688 199.673 50.64 199.805 50.64H201.875C202.007 50.64 202.115 50.688 202.199 50.784C202.283 50.868 202.325 50.97 202.325 51.09V51.81C202.649 51.438 203.033 51.15 203.477 50.946C203.933 50.742 204.443 50.64 205.007 50.64H205.799C205.919 50.64 206.021 50.682 206.105 50.766C206.201 50.85 206.249 50.958 206.249 51.09V52.944C206.249 53.064 206.201 53.172 206.105 53.268C206.021 53.352 205.919 53.394 205.799 53.394H204.053C203.561 53.394 203.177 53.532 202.901 53.808C202.637 54.072 202.505 54.45 202.505 54.942V59.55C202.505 59.682 202.457 59.79 202.361 59.874C202.277 59.958 202.169 60 202.037 60H199.805ZM211.886 60.18C210.878 60.18 210.026 60.018 209.33 59.694C208.646 59.37 208.118 58.908 207.746 58.308C207.386 57.696 207.182 56.97 207.134 56.13C207.122 55.89 207.116 55.62 207.116 55.32C207.116 55.008 207.122 54.738 207.134 54.51C207.182 53.658 207.398 52.932 207.782 52.332C208.166 51.732 208.7 51.27 209.384 50.946C210.08 50.622 210.914 50.46 211.886 50.46C212.87 50.46 213.704 50.622 214.388 50.946C215.084 51.27 215.624 51.732 216.008 52.332C216.392 52.932 216.608 53.658 216.656 54.51C216.668 54.738 216.674 55.008 216.674 55.32C216.674 55.62 216.668 55.89 216.656 56.13C216.608 56.97 216.398 57.696 216.026 58.308C215.666 58.908 215.138 59.37 214.442 59.694C213.758 60.018 212.906 60.18 211.886 60.18ZM211.886 57.984C212.426 57.984 212.816 57.822 213.056 57.498C213.308 57.174 213.452 56.688 213.488 56.04C213.5 55.86 213.506 55.62 213.506 55.32C213.506 55.02 213.5 54.78 213.488 54.6C213.452 53.964 213.308 53.484 213.056 53.16C212.816 52.824 212.426 52.656 211.886 52.656C211.358 52.656 210.968 52.824 210.716 53.16C210.464 53.484 210.326 53.964 210.302 54.6C210.29 54.78 210.284 55.02 210.284 55.32C210.284 55.62 210.29 55.86 210.302 56.04C210.326 56.688 210.464 57.174 210.716 57.498C210.968 57.822 211.358 57.984 211.886 57.984ZM222.747 60.18C221.859 60.18 221.073 60.018 220.389 59.694C219.705 59.37 219.159 58.902 218.751 58.29C218.355 57.666 218.139 56.922 218.103 56.058C218.091 55.866 218.085 55.626 218.085 55.338C218.085 55.038 218.091 54.792 218.103 54.6C218.139 53.724 218.355 52.98 218.751 52.368C219.147 51.744 219.687 51.27 220.371 50.946C221.067 50.622 221.859 50.46 222.747 50.46C223.575 50.46 224.283 50.58 224.871 50.82C225.459 51.048 225.939 51.336 226.311 51.684C226.683 52.032 226.959 52.392 227.139 52.764C227.331 53.124 227.433 53.442 227.445 53.718C227.457 53.838 227.415 53.946 227.319 54.042C227.223 54.126 227.115 54.168 226.995 54.168H224.709C224.577 54.168 224.475 54.138 224.403 54.078C224.331 54.018 224.265 53.928 224.205 53.808C224.061 53.436 223.875 53.172 223.647 53.016C223.431 52.86 223.149 52.782 222.801 52.782C222.321 52.782 221.949 52.938 221.685 53.25C221.433 53.562 221.295 54.042 221.271 54.69C221.259 55.17 221.259 55.596 221.271 55.968C221.295 56.628 221.433 57.108 221.685 57.408C221.949 57.708 222.321 57.858 222.801 57.858C223.173 57.858 223.467 57.78 223.683 57.624C223.899 57.468 224.073 57.204 224.205 56.832C224.265 56.712 224.331 56.622 224.403 56.562C224.475 56.502 224.577 56.472 224.709 56.472H226.995C227.115 56.472 227.223 56.52 227.319 56.616C227.415 56.7 227.457 56.802 227.445 56.922C227.433 57.126 227.373 57.366 227.265 57.642C227.157 57.906 226.989 58.188 226.761 58.488C226.533 58.788 226.233 59.07 225.861 59.334C225.501 59.586 225.063 59.79 224.547 59.946C224.031 60.102 223.431 60.18 222.747 60.18Z" fill="#FF0000"/>
<path d="M7.69716 18.5016C5.02898 33.8147 5.377 37.5269 9.6693 39.8471C15.3537 42.9793 24.0543 40.0791 27.1865 34.0467C28.6215 32.278 33.7259 7.59691 33.8419 4.00066C32.5368 4.00066 29.9707 4.00066 21.6181 4.00066H10.3653L7.69716 18.5016Z" fill="#3195FD"/>
<path d="M34.377 18.7328C32.4049 30.1016 31.1288 34.2778 28.8086 37.294C24.6324 42.8624 19.76 44.9506 13.0316 44.3705C7.46319 43.7905 7.46319 43.7905 9.43533 46.1106C19.876 57.5954 41.3375 52.9551 49.342 37.294C50.6181 34.8579 52.8223 26.3893 54.3304 18.5008L56.9986 3.99979H46.9059H36.9292L34.377 18.7328Z" fill="#003399"/>
</g>
<defs>
<clipPath id="clip0_870_1258">
<rect width="250" height="60" fill="white"/>
</clipPath>
</defs>
</svg>
