<svg width="250" height="100" viewBox="0 0 250 100" fill="none" xmlns="http://www.w3.org/2000/svg">
<path d="M77.1132 61.35C75.0132 61.35 73.1699 61.0117 71.5832 60.335C70.0199 59.635 68.8065 58.5733 67.9432 57.15C67.0799 55.7033 66.6482 53.8717 66.6482 51.655V37.375C66.6482 37.1183 66.7299 36.9083 66.8932 36.745C67.0565 36.5817 67.2665 36.5 67.5232 36.5H72.0382C72.2949 36.5 72.5049 36.5817 72.6682 36.745C72.8315 36.9083 72.9132 37.1183 72.9132 37.375V51.62C72.9132 53.1367 73.2749 54.28 73.9982 55.05C74.7449 55.7967 75.7832 56.17 77.1132 56.17C78.4199 56.17 79.4349 55.7967 80.1582 55.05C80.9049 54.28 81.2782 53.1367 81.2782 51.62V37.375C81.2782 37.1183 81.3599 36.9083 81.5232 36.745C81.7099 36.5817 81.9199 36.5 82.1532 36.5H86.7032C86.9365 36.5 87.1349 36.5817 87.2982 36.745C87.4849 36.9083 87.5782 37.1183 87.5782 37.375V51.655C87.5782 53.8717 87.1465 55.7033 86.2832 57.15C85.4199 58.5733 84.2065 59.635 82.6432 60.335C81.0799 61.0117 79.2365 61.35 77.1132 61.35ZM93.0945 61C92.8379 61 92.6279 60.9183 92.4645 60.755C92.3012 60.5917 92.2195 60.3817 92.2195 60.125V37.375C92.2195 37.1183 92.3012 36.9083 92.4645 36.745C92.6279 36.5817 92.8379 36.5 93.0945 36.5H103.77C105.776 36.5 107.421 36.78 108.705 37.34C109.988 37.9 110.933 38.705 111.54 39.755C112.17 40.7817 112.485 42.0067 112.485 43.43C112.485 44.27 112.321 45.0167 111.995 45.67C111.691 46.3 111.306 46.825 110.84 47.245C110.396 47.665 109.976 47.9683 109.58 48.155C110.466 48.575 111.248 49.2633 111.925 50.22C112.625 51.1767 112.975 52.2967 112.975 53.58C112.975 55.12 112.625 56.45 111.925 57.57C111.248 58.6667 110.245 59.5183 108.915 60.125C107.608 60.7083 105.998 61 104.085 61H93.0945ZM98.4845 56.45H103.385C104.388 56.45 105.146 56.1583 105.66 55.575C106.173 54.9917 106.43 54.3267 106.43 53.58C106.43 52.7633 106.161 52.075 105.625 51.515C105.111 50.955 104.365 50.675 103.385 50.675H98.4845V56.45ZM98.4845 46.23H103.07C104.026 46.23 104.738 45.985 105.205 45.495C105.695 45.005 105.94 44.375 105.94 43.605C105.94 42.8583 105.695 42.2517 105.205 41.785C104.738 41.295 104.026 41.05 103.07 41.05H98.4845V46.23ZM115.121 61C114.935 61 114.76 60.93 114.596 60.79C114.456 60.6267 114.386 60.4517 114.386 60.265C114.386 60.1483 114.398 60.0433 114.421 59.95L122.646 37.48C122.716 37.2233 122.856 37.0017 123.066 36.815C123.3 36.605 123.615 36.5 124.011 36.5H129.191C129.588 36.5 129.891 36.605 130.101 36.815C130.335 37.0017 130.486 37.2233 130.556 37.48L138.746 59.95C138.793 60.0433 138.816 60.1483 138.816 60.265C138.816 60.4517 138.735 60.6267 138.571 60.79C138.431 60.93 138.256 61 138.046 61H133.741C133.391 61 133.123 60.9183 132.936 60.755C132.773 60.5683 132.668 60.405 132.621 60.265L131.256 56.695H121.911L120.581 60.265C120.535 60.405 120.43 60.5683 120.266 60.755C120.103 60.9183 119.823 61 119.426 61H115.121ZM123.346 51.655H129.856L126.566 42.415L123.346 51.655ZM142.45 61C142.193 61 141.983 60.9183 141.82 60.755C141.657 60.5917 141.575 60.3817 141.575 60.125V37.375C141.575 37.1183 141.657 36.9083 141.82 36.745C141.983 36.5817 142.193 36.5 142.45 36.5H151.97C154.98 36.5 157.348 37.2 159.075 38.6C160.825 39.9767 161.7 41.9367 161.7 44.48C161.7 46.1367 161.292 47.5367 160.475 48.68C159.682 49.8233 158.632 50.6867 157.325 51.27L162.155 59.88C162.225 60.02 162.26 60.1483 162.26 60.265C162.26 60.4517 162.178 60.6267 162.015 60.79C161.875 60.93 161.7 61 161.49 61H156.87C156.427 61 156.1 60.895 155.89 60.685C155.68 60.4517 155.528 60.2417 155.435 60.055L151.445 52.355H147.84V60.125C147.84 60.3817 147.758 60.5917 147.595 60.755C147.432 60.9183 147.222 61 146.965 61H142.45ZM147.84 47.42H151.9C152.997 47.42 153.813 47.1517 154.35 46.615C154.91 46.0783 155.19 45.3433 155.19 44.41C155.19 43.5 154.922 42.765 154.385 42.205C153.872 41.645 153.043 41.365 151.9 41.365H147.84V47.42ZM166.649 61C166.393 61 166.183 60.9183 166.019 60.755C165.856 60.5917 165.774 60.3817 165.774 60.125V37.375C165.774 37.1183 165.856 36.9083 166.019 36.745C166.183 36.5817 166.393 36.5 166.649 36.5H171.339C171.596 36.5 171.806 36.5817 171.969 36.745C172.133 36.9083 172.214 37.1183 172.214 37.375V60.125C172.214 60.3817 172.133 60.5917 171.969 60.755C171.806 60.9183 171.596 61 171.339 61H166.649ZM186.257 61.35C183.924 61.35 181.987 61.0233 180.447 60.37C178.907 59.6933 177.74 58.8183 176.947 57.745C176.154 56.6717 175.734 55.5283 175.687 54.315C175.687 54.1283 175.757 53.965 175.897 53.825C176.06 53.6617 176.247 53.58 176.457 53.58H180.867C181.194 53.58 181.439 53.6383 181.602 53.755C181.789 53.8717 181.952 54.0233 182.092 54.21C182.279 54.56 182.535 54.8983 182.862 55.225C183.212 55.5517 183.655 55.82 184.192 56.03C184.752 56.2167 185.44 56.31 186.257 56.31C187.61 56.31 188.625 56.1 189.302 55.68C190.002 55.26 190.352 54.6883 190.352 53.965C190.352 53.4517 190.165 53.0317 189.792 52.705C189.419 52.355 188.812 52.0517 187.972 51.795C187.155 51.515 186.059 51.235 184.682 50.955C182.909 50.5817 181.392 50.1033 180.132 49.52C178.895 48.9133 177.95 48.1317 177.297 47.175C176.644 46.195 176.317 44.9817 176.317 43.535C176.317 42.1117 176.714 40.84 177.507 39.72C178.324 38.6 179.455 37.725 180.902 37.095C182.349 36.465 184.064 36.15 186.047 36.15C187.657 36.15 189.069 36.36 190.282 36.78C191.519 37.2 192.557 37.76 193.397 38.46C194.237 39.16 194.867 39.9067 195.287 40.7C195.73 41.47 195.964 42.2283 195.987 42.975C195.987 43.1617 195.917 43.3367 195.777 43.5C195.637 43.64 195.462 43.71 195.252 43.71H190.632C190.375 43.71 190.154 43.6633 189.967 43.57C189.78 43.4767 189.617 43.325 189.477 43.115C189.337 42.6017 188.964 42.1583 188.357 41.785C187.774 41.3883 187.004 41.19 186.047 41.19C185.02 41.19 184.215 41.3767 183.632 41.75C183.072 42.1 182.792 42.6483 182.792 43.395C182.792 43.8617 182.944 44.27 183.247 44.62C183.574 44.97 184.099 45.2733 184.822 45.53C185.569 45.7867 186.584 46.055 187.867 46.335C189.99 46.7317 191.705 47.2333 193.012 47.84C194.319 48.4233 195.275 49.1933 195.882 50.15C196.489 51.0833 196.792 52.2617 196.792 53.685C196.792 55.2717 196.337 56.6483 195.427 57.815C194.54 58.9583 193.304 59.8333 191.717 60.44C190.13 61.0467 188.31 61.35 186.257 61.35ZM206.321 61C206.065 61 205.855 60.9183 205.691 60.755C205.528 60.5917 205.446 60.3817 205.446 60.125V41.995H199.216C198.96 41.995 198.75 41.9133 198.586 41.75C198.423 41.5633 198.341 41.3533 198.341 41.12V37.375C198.341 37.1183 198.423 36.9083 198.586 36.745C198.75 36.5817 198.96 36.5 199.216 36.5H218.046C218.303 36.5 218.513 36.5817 218.676 36.745C218.84 36.9083 218.921 37.1183 218.921 37.375V41.12C218.921 41.3533 218.84 41.5633 218.676 41.75C218.513 41.9133 218.303 41.995 218.046 41.995H211.816V60.125C211.816 60.3817 211.735 60.5917 211.571 60.755C211.408 60.9183 211.198 61 210.941 61H206.321ZM222.977 61C222.721 61 222.511 60.9183 222.347 60.755C222.184 60.5917 222.102 60.3817 222.102 60.125V37.375C222.102 37.1183 222.184 36.9083 222.347 36.745C222.511 36.5817 222.721 36.5 222.977 36.5H227.667C227.924 36.5 228.134 36.5817 228.297 36.745C228.461 36.9083 228.542 37.1183 228.542 37.375V60.125C228.542 60.3817 228.461 60.5917 228.297 60.755C228.134 60.9183 227.924 61 227.667 61H222.977Z" fill="white"/>
<path d="M177.497 83C177.377 83 177.269 82.958 177.173 82.874C177.089 82.79 177.047 82.682 177.047 82.55V70.85C177.047 70.718 177.089 70.61 177.173 70.526C177.269 70.442 177.377 70.4 177.497 70.4H179.441C179.633 70.4 179.777 70.454 179.873 70.562C179.981 70.658 180.047 70.736 180.071 70.796L183.239 76.484L186.407 70.796C186.443 70.736 186.503 70.658 186.587 70.562C186.683 70.454 186.833 70.4 187.037 70.4H188.963C189.095 70.4 189.203 70.442 189.287 70.526C189.383 70.61 189.431 70.718 189.431 70.85V82.55C189.431 82.682 189.383 82.79 189.287 82.874C189.203 82.958 189.095 83 188.963 83H186.821C186.689 83 186.575 82.958 186.479 82.874C186.395 82.79 186.353 82.682 186.353 82.55V75.8L184.319 79.562C184.271 79.67 184.199 79.766 184.103 79.85C184.007 79.934 183.875 79.976 183.707 79.976H182.771C182.603 79.976 182.471 79.934 182.375 79.85C182.279 79.766 182.201 79.67 182.141 79.562L180.107 75.8V82.55C180.107 82.682 180.065 82.79 179.981 82.874C179.897 82.958 179.789 83 179.657 83H177.497ZM194.546 83.18C193.898 83.18 193.316 83.06 192.8 82.82C192.296 82.568 191.894 82.232 191.594 81.812C191.294 81.392 191.144 80.918 191.144 80.39C191.144 79.538 191.492 78.866 192.188 78.374C192.884 77.87 193.808 77.528 194.96 77.348L197.21 77.006V76.754C197.21 76.322 197.12 75.992 196.94 75.764C196.76 75.536 196.43 75.422 195.95 75.422C195.614 75.422 195.338 75.488 195.122 75.62C194.918 75.752 194.756 75.932 194.636 76.16C194.528 76.316 194.378 76.394 194.186 76.394H192.17C192.038 76.394 191.936 76.358 191.864 76.286C191.792 76.202 191.762 76.106 191.774 75.998C191.774 75.782 191.852 75.536 192.008 75.26C192.176 74.972 192.428 74.69 192.764 74.414C193.1 74.138 193.532 73.91 194.06 73.73C194.588 73.55 195.224 73.46 195.968 73.46C196.748 73.46 197.414 73.55 197.966 73.73C198.518 73.91 198.962 74.162 199.298 74.486C199.646 74.81 199.904 75.194 200.072 75.638C200.24 76.07 200.324 76.55 200.324 77.078V82.55C200.324 82.682 200.276 82.79 200.18 82.874C200.096 82.958 199.994 83 199.874 83H197.786C197.654 83 197.546 82.958 197.462 82.874C197.378 82.79 197.336 82.682 197.336 82.55V81.92C197.18 82.148 196.97 82.358 196.706 82.55C196.442 82.742 196.13 82.892 195.77 83C195.422 83.12 195.014 83.18 194.546 83.18ZM195.392 81.128C195.74 81.128 196.052 81.056 196.328 80.912C196.616 80.756 196.838 80.522 196.994 80.21C197.162 79.886 197.246 79.484 197.246 79.004V78.752L195.716 79.022C195.152 79.118 194.738 79.268 194.474 79.472C194.222 79.664 194.096 79.892 194.096 80.156C194.096 80.36 194.156 80.534 194.276 80.678C194.396 80.822 194.552 80.936 194.744 81.02C194.936 81.092 195.152 81.128 195.392 81.128ZM202.805 83C202.673 83 202.565 82.958 202.481 82.874C202.397 82.79 202.355 82.682 202.355 82.55V74.09C202.355 73.97 202.397 73.868 202.481 73.784C202.565 73.688 202.673 73.64 202.805 73.64H204.875C205.007 73.64 205.115 73.688 205.199 73.784C205.283 73.868 205.325 73.97 205.325 74.09V74.81C205.649 74.438 206.033 74.15 206.477 73.946C206.933 73.742 207.443 73.64 208.007 73.64H208.799C208.919 73.64 209.021 73.682 209.105 73.766C209.201 73.85 209.249 73.958 209.249 74.09V75.944C209.249 76.064 209.201 76.172 209.105 76.268C209.021 76.352 208.919 76.394 208.799 76.394H207.053C206.561 76.394 206.177 76.532 205.901 76.808C205.637 77.072 205.505 77.45 205.505 77.942V82.55C205.505 82.682 205.457 82.79 205.361 82.874C205.277 82.958 205.169 83 205.037 83H202.805ZM214.886 83.18C213.878 83.18 213.026 83.018 212.33 82.694C211.646 82.37 211.118 81.908 210.746 81.308C210.386 80.696 210.182 79.97 210.134 79.13C210.122 78.89 210.116 78.62 210.116 78.32C210.116 78.008 210.122 77.738 210.134 77.51C210.182 76.658 210.398 75.932 210.782 75.332C211.166 74.732 211.7 74.27 212.384 73.946C213.08 73.622 213.914 73.46 214.886 73.46C215.87 73.46 216.704 73.622 217.388 73.946C218.084 74.27 218.624 74.732 219.008 75.332C219.392 75.932 219.608 76.658 219.656 77.51C219.668 77.738 219.674 78.008 219.674 78.32C219.674 78.62 219.668 78.89 219.656 79.13C219.608 79.97 219.398 80.696 219.026 81.308C218.666 81.908 218.138 82.37 217.442 82.694C216.758 83.018 215.906 83.18 214.886 83.18ZM214.886 80.984C215.426 80.984 215.816 80.822 216.056 80.498C216.308 80.174 216.452 79.688 216.488 79.04C216.5 78.86 216.506 78.62 216.506 78.32C216.506 78.02 216.5 77.78 216.488 77.6C216.452 76.964 216.308 76.484 216.056 76.16C215.816 75.824 215.426 75.656 214.886 75.656C214.358 75.656 213.968 75.824 213.716 76.16C213.464 76.484 213.326 76.964 213.302 77.6C213.29 77.78 213.284 78.02 213.284 78.32C213.284 78.62 213.29 78.86 213.302 79.04C213.326 79.688 213.464 80.174 213.716 80.498C213.968 80.822 214.358 80.984 214.886 80.984ZM225.747 83.18C224.859 83.18 224.073 83.018 223.389 82.694C222.705 82.37 222.159 81.902 221.751 81.29C221.355 80.666 221.139 79.922 221.103 79.058C221.091 78.866 221.085 78.626 221.085 78.338C221.085 78.038 221.091 77.792 221.103 77.6C221.139 76.724 221.355 75.98 221.751 75.368C222.147 74.744 222.687 74.27 223.371 73.946C224.067 73.622 224.859 73.46 225.747 73.46C226.575 73.46 227.283 73.58 227.871 73.82C228.459 74.048 228.939 74.336 229.311 74.684C229.683 75.032 229.959 75.392 230.139 75.764C230.331 76.124 230.433 76.442 230.445 76.718C230.457 76.838 230.415 76.946 230.319 77.042C230.223 77.126 230.115 77.168 229.995 77.168H227.709C227.577 77.168 227.475 77.138 227.403 77.078C227.331 77.018 227.265 76.928 227.205 76.808C227.061 76.436 226.875 76.172 226.647 76.016C226.431 75.86 226.149 75.782 225.801 75.782C225.321 75.782 224.949 75.938 224.685 76.25C224.433 76.562 224.295 77.042 224.271 77.69C224.259 78.17 224.259 78.596 224.271 78.968C224.295 79.628 224.433 80.108 224.685 80.408C224.949 80.708 225.321 80.858 225.801 80.858C226.173 80.858 226.467 80.78 226.683 80.624C226.899 80.468 227.073 80.204 227.205 79.832C227.265 79.712 227.331 79.622 227.403 79.562C227.475 79.502 227.577 79.472 227.709 79.472H229.995C230.115 79.472 230.223 79.52 230.319 79.616C230.415 79.7 230.457 79.802 230.445 79.922C230.433 80.126 230.373 80.366 230.265 80.642C230.157 80.906 229.989 81.188 229.761 81.488C229.533 81.788 229.233 82.07 228.861 82.334C228.501 82.586 228.063 82.79 227.547 82.946C227.031 83.102 226.431 83.18 225.747 83.18Z" fill="#E5E5E5"/>
<path d="M10.6972 40.5016C8.02898 55.8147 8.377 59.5269 12.6693 61.8471C18.3537 64.9793 27.0543 62.0791 30.1865 56.0467C31.6215 54.278 36.7259 29.5969 36.8419 26.0007C35.5368 26.0007 32.9707 26.0007 24.6181 26.0007H13.3653L10.6972 40.5016Z" fill="white"/>
<path d="M37.377 40.7328C35.4049 52.1016 34.1288 56.2778 31.8086 59.294C27.6324 64.8624 22.76 66.9506 16.0316 66.3705C10.4632 65.7905 10.4632 65.7905 12.4353 68.1106C22.876 79.5954 44.3375 74.9551 52.342 59.294C53.6181 56.8579 55.8223 48.3893 57.3304 40.5008L59.9986 25.9998H49.9059H39.9292L37.377 40.7328Z" fill="white"/>
</svg>
