<svg width="250" height="100" viewBox="0 0 250 100" fill="none" xmlns="http://www.w3.org/2000/svg">
<path d="M77.1132 61.35C75.0132 61.35 73.1699 61.0117 71.5832 60.335C70.0199 59.635 68.8065 58.5733 67.9432 57.15C67.0799 55.7033 66.6482 53.8717 66.6482 51.655V37.375C66.6482 37.1183 66.7299 36.9083 66.8932 36.745C67.0565 36.5817 67.2665 36.5 67.5232 36.5H72.0382C72.2949 36.5 72.5049 36.5817 72.6682 36.745C72.8315 36.9083 72.9132 37.1183 72.9132 37.375V51.62C72.9132 53.1367 73.2749 54.28 73.9982 55.05C74.7449 55.7967 75.7832 56.17 77.1132 56.17C78.4199 56.17 79.4349 55.7967 80.1582 55.05C80.9049 54.28 81.2782 53.1367 81.2782 51.62V37.375C81.2782 37.1183 81.3599 36.9083 81.5232 36.745C81.7099 36.5817 81.9199 36.5 82.1532 36.5H86.7032C86.9365 36.5 87.1349 36.5817 87.2982 36.745C87.4849 36.9083 87.5782 37.1183 87.5782 37.375V51.655C87.5782 53.8717 87.1465 55.7033 86.2832 57.15C85.4199 58.5733 84.2065 59.635 82.6432 60.335C81.0799 61.0117 79.2365 61.35 77.1132 61.35ZM93.0945 61C92.8379 61 92.6279 60.9183 92.4645 60.755C92.3012 60.5917 92.2195 60.3817 92.2195 60.125V37.375C92.2195 37.1183 92.3012 36.9083 92.4645 36.745C92.6279 36.5817 92.8379 36.5 93.0945 36.5H103.77C105.776 36.5 107.421 36.78 108.705 37.34C109.988 37.9 110.933 38.705 111.54 39.755C112.17 40.7817 112.485 42.0067 112.485 43.43C112.485 44.27 112.321 45.0167 111.995 45.67C111.691 46.3 111.306 46.825 110.84 47.245C110.396 47.665 109.976 47.9683 109.58 48.155C110.466 48.575 111.248 49.2633 111.925 50.22C112.625 51.1767 112.975 52.2967 112.975 53.58C112.975 55.12 112.625 56.45 111.925 57.57C111.248 58.6667 110.245 59.5183 108.915 60.125C107.608 60.7083 105.998 61 104.085 61H93.0945ZM98.4845 56.45H103.385C104.388 56.45 105.146 56.1583 105.66 55.575C106.173 54.9917 106.43 54.3267 106.43 53.58C106.43 52.7633 106.161 52.075 105.625 51.515C105.111 50.955 104.365 50.675 103.385 50.675H98.4845V56.45ZM98.4845 46.23H103.07C104.026 46.23 104.738 45.985 105.205 45.495C105.695 45.005 105.94 44.375 105.94 43.605C105.94 42.8583 105.695 42.2517 105.205 41.785C104.738 41.295 104.026 41.05 103.07 41.05H98.4845V46.23ZM115.121 61C114.935 61 114.76 60.93 114.596 60.79C114.456 60.6267 114.386 60.4517 114.386 60.265C114.386 60.1483 114.398 60.0433 114.421 59.95L122.646 37.48C122.716 37.2233 122.856 37.0017 123.066 36.815C123.3 36.605 123.615 36.5 124.011 36.5H129.191C129.588 36.5 129.891 36.605 130.101 36.815C130.335 37.0017 130.486 37.2233 130.556 37.48L138.746 59.95C138.793 60.0433 138.816 60.1483 138.816 60.265C138.816 60.4517 138.735 60.6267 138.571 60.79C138.431 60.93 138.256 61 138.046 61H133.741C133.391 61 133.123 60.9183 132.936 60.755C132.773 60.5683 132.668 60.405 132.621 60.265L131.256 56.695H121.911L120.581 60.265C120.535 60.405 120.43 60.5683 120.266 60.755C120.103 60.9183 119.823 61 119.426 61H115.121ZM123.346 51.655H129.856L126.566 42.415L123.346 51.655ZM142.45 61C142.193 61 141.983 60.9183 141.82 60.755C141.657 60.5917 141.575 60.3817 141.575 60.125V37.375C141.575 37.1183 141.657 36.9083 141.82 36.745C141.983 36.5817 142.193 36.5 142.45 36.5H151.97C154.98 36.5 157.348 37.2 159.075 38.6C160.825 39.9767 161.7 41.9367 161.7 44.48C161.7 46.1367 161.292 47.5367 160.475 48.68C159.682 49.8233 158.632 50.6867 157.325 51.27L162.155 59.88C162.225 60.02 162.26 60.1483 162.26 60.265C162.26 60.4517 162.178 60.6267 162.015 60.79C161.875 60.93 161.7 61 161.49 61H156.87C156.427 61 156.1 60.895 155.89 60.685C155.68 60.4517 155.528 60.2417 155.435 60.055L151.445 52.355H147.84V60.125C147.84 60.3817 147.758 60.5917 147.595 60.755C147.432 60.9183 147.222 61 146.965 61H142.45ZM147.84 47.42H151.9C152.997 47.42 153.813 47.1517 154.35 46.615C154.91 46.0783 155.19 45.3433 155.19 44.41C155.19 43.5 154.922 42.765 154.385 42.205C153.872 41.645 153.043 41.365 151.9 41.365H147.84V47.42ZM166.649 61C166.393 61 166.183 60.9183 166.019 60.755C165.856 60.5917 165.774 60.3817 165.774 60.125V37.375C165.774 37.1183 165.856 36.9083 166.019 36.745C166.183 36.5817 166.393 36.5 166.649 36.5H171.339C171.596 36.5 171.806 36.5817 171.969 36.745C172.133 36.9083 172.214 37.1183 172.214 37.375V60.125C172.214 60.3817 172.133 60.5917 171.969 60.755C171.806 60.9183 171.596 61 171.339 61H166.649ZM186.257 61.35C183.924 61.35 181.987 61.0233 180.447 60.37C178.907 59.6933 177.74 58.8183 176.947 57.745C176.154 56.6717 175.734 55.5283 175.687 54.315C175.687 54.1283 175.757 53.965 175.897 53.825C176.06 53.6617 176.247 53.58 176.457 53.58H180.867C181.194 53.58 181.439 53.6383 181.602 53.755C181.789 53.8717 181.952 54.0233 182.092 54.21C182.279 54.56 182.535 54.8983 182.862 55.225C183.212 55.5517 183.655 55.82 184.192 56.03C184.752 56.2167 185.44 56.31 186.257 56.31C187.61 56.31 188.625 56.1 189.302 55.68C190.002 55.26 190.352 54.6883 190.352 53.965C190.352 53.4517 190.165 53.0317 189.792 52.705C189.419 52.355 188.812 52.0517 187.972 51.795C187.155 51.515 186.059 51.235 184.682 50.955C182.909 50.5817 181.392 50.1033 180.132 49.52C178.895 48.9133 177.95 48.1317 177.297 47.175C176.644 46.195 176.317 44.9817 176.317 43.535C176.317 42.1117 176.714 40.84 177.507 39.72C178.324 38.6 179.455 37.725 180.902 37.095C182.349 36.465 184.064 36.15 186.047 36.15C187.657 36.15 189.069 36.36 190.282 36.78C191.519 37.2 192.557 37.76 193.397 38.46C194.237 39.16 194.867 39.9067 195.287 40.7C195.73 41.47 195.964 42.2283 195.987 42.975C195.987 43.1617 195.917 43.3367 195.777 43.5C195.637 43.64 195.462 43.71 195.252 43.71H190.632C190.375 43.71 190.154 43.6633 189.967 43.57C189.78 43.4767 189.617 43.325 189.477 43.115C189.337 42.6017 188.964 42.1583 188.357 41.785C187.774 41.3883 187.004 41.19 186.047 41.19C185.02 41.19 184.215 41.3767 183.632 41.75C183.072 42.1 182.792 42.6483 182.792 43.395C182.792 43.8617 182.944 44.27 183.247 44.62C183.574 44.97 184.099 45.2733 184.822 45.53C185.569 45.7867 186.584 46.055 187.867 46.335C189.99 46.7317 191.705 47.2333 193.012 47.84C194.319 48.4233 195.275 49.1933 195.882 50.15C196.489 51.0833 196.792 52.2617 196.792 53.685C196.792 55.2717 196.337 56.6483 195.427 57.815C194.54 58.9583 193.304 59.8333 191.717 60.44C190.13 61.0467 188.31 61.35 186.257 61.35ZM206.321 61C206.065 61 205.855 60.9183 205.691 60.755C205.528 60.5917 205.446 60.3817 205.446 60.125V41.995H199.216C198.96 41.995 198.75 41.9133 198.586 41.75C198.423 41.5633 198.341 41.3533 198.341 41.12V37.375C198.341 37.1183 198.423 36.9083 198.586 36.745C198.75 36.5817 198.96 36.5 199.216 36.5H218.046C218.303 36.5 218.513 36.5817 218.676 36.745C218.84 36.9083 218.921 37.1183 218.921 37.375V41.12C218.921 41.3533 218.84 41.5633 218.676 41.75C218.513 41.9133 218.303 41.995 218.046 41.995H211.816V60.125C211.816 60.3817 211.735 60.5917 211.571 60.755C211.408 60.9183 211.198 61 210.941 61H206.321ZM222.977 61C222.721 61 222.511 60.9183 222.347 60.755C222.184 60.5917 222.102 60.3817 222.102 60.125V37.375C222.102 37.1183 222.184 36.9083 222.347 36.745C222.511 36.5817 222.721 36.5 222.977 36.5H227.667C227.924 36.5 228.134 36.5817 228.297 36.745C228.461 36.9083 228.542 37.1183 228.542 37.375V60.125C228.542 60.3817 228.461 60.5917 228.297 60.755C228.134 60.9183 227.924 61 227.667 61H222.977Z" fill="#0F4585"/>
<path d="M177.497 82C177.377 82 177.269 81.958 177.173 81.874C177.089 81.79 177.047 81.682 177.047 81.55V69.85C177.047 69.718 177.089 69.61 177.173 69.526C177.269 69.442 177.377 69.4 177.497 69.4H179.441C179.633 69.4 179.777 69.454 179.873 69.562C179.981 69.658 180.047 69.736 180.071 69.796L183.239 75.484L186.407 69.796C186.443 69.736 186.503 69.658 186.587 69.562C186.683 69.454 186.833 69.4 187.037 69.4H188.963C189.095 69.4 189.203 69.442 189.287 69.526C189.383 69.61 189.431 69.718 189.431 69.85V81.55C189.431 81.682 189.383 81.79 189.287 81.874C189.203 81.958 189.095 82 188.963 82H186.821C186.689 82 186.575 81.958 186.479 81.874C186.395 81.79 186.353 81.682 186.353 81.55V74.8L184.319 78.562C184.271 78.67 184.199 78.766 184.103 78.85C184.007 78.934 183.875 78.976 183.707 78.976H182.771C182.603 78.976 182.471 78.934 182.375 78.85C182.279 78.766 182.201 78.67 182.141 78.562L180.107 74.8V81.55C180.107 81.682 180.065 81.79 179.981 81.874C179.897 81.958 179.789 82 179.657 82H177.497ZM194.546 82.18C193.898 82.18 193.316 82.06 192.8 81.82C192.296 81.568 191.894 81.232 191.594 80.812C191.294 80.392 191.144 79.918 191.144 79.39C191.144 78.538 191.492 77.866 192.188 77.374C192.884 76.87 193.808 76.528 194.96 76.348L197.21 76.006V75.754C197.21 75.322 197.12 74.992 196.94 74.764C196.76 74.536 196.43 74.422 195.95 74.422C195.614 74.422 195.338 74.488 195.122 74.62C194.918 74.752 194.756 74.932 194.636 75.16C194.528 75.316 194.378 75.394 194.186 75.394H192.17C192.038 75.394 191.936 75.358 191.864 75.286C191.792 75.202 191.762 75.106 191.774 74.998C191.774 74.782 191.852 74.536 192.008 74.26C192.176 73.972 192.428 73.69 192.764 73.414C193.1 73.138 193.532 72.91 194.06 72.73C194.588 72.55 195.224 72.46 195.968 72.46C196.748 72.46 197.414 72.55 197.966 72.73C198.518 72.91 198.962 73.162 199.298 73.486C199.646 73.81 199.904 74.194 200.072 74.638C200.24 75.07 200.324 75.55 200.324 76.078V81.55C200.324 81.682 200.276 81.79 200.18 81.874C200.096 81.958 199.994 82 199.874 82H197.786C197.654 82 197.546 81.958 197.462 81.874C197.378 81.79 197.336 81.682 197.336 81.55V80.92C197.18 81.148 196.97 81.358 196.706 81.55C196.442 81.742 196.13 81.892 195.77 82C195.422 82.12 195.014 82.18 194.546 82.18ZM195.392 80.128C195.74 80.128 196.052 80.056 196.328 79.912C196.616 79.756 196.838 79.522 196.994 79.21C197.162 78.886 197.246 78.484 197.246 78.004V77.752L195.716 78.022C195.152 78.118 194.738 78.268 194.474 78.472C194.222 78.664 194.096 78.892 194.096 79.156C194.096 79.36 194.156 79.534 194.276 79.678C194.396 79.822 194.552 79.936 194.744 80.02C194.936 80.092 195.152 80.128 195.392 80.128ZM202.805 82C202.673 82 202.565 81.958 202.481 81.874C202.397 81.79 202.355 81.682 202.355 81.55V73.09C202.355 72.97 202.397 72.868 202.481 72.784C202.565 72.688 202.673 72.64 202.805 72.64H204.875C205.007 72.64 205.115 72.688 205.199 72.784C205.283 72.868 205.325 72.97 205.325 73.09V73.81C205.649 73.438 206.033 73.15 206.477 72.946C206.933 72.742 207.443 72.64 208.007 72.64H208.799C208.919 72.64 209.021 72.682 209.105 72.766C209.201 72.85 209.249 72.958 209.249 73.09V74.944C209.249 75.064 209.201 75.172 209.105 75.268C209.021 75.352 208.919 75.394 208.799 75.394H207.053C206.561 75.394 206.177 75.532 205.901 75.808C205.637 76.072 205.505 76.45 205.505 76.942V81.55C205.505 81.682 205.457 81.79 205.361 81.874C205.277 81.958 205.169 82 205.037 82H202.805ZM214.886 82.18C213.878 82.18 213.026 82.018 212.33 81.694C211.646 81.37 211.118 80.908 210.746 80.308C210.386 79.696 210.182 78.97 210.134 78.13C210.122 77.89 210.116 77.62 210.116 77.32C210.116 77.008 210.122 76.738 210.134 76.51C210.182 75.658 210.398 74.932 210.782 74.332C211.166 73.732 211.7 73.27 212.384 72.946C213.08 72.622 213.914 72.46 214.886 72.46C215.87 72.46 216.704 72.622 217.388 72.946C218.084 73.27 218.624 73.732 219.008 74.332C219.392 74.932 219.608 75.658 219.656 76.51C219.668 76.738 219.674 77.008 219.674 77.32C219.674 77.62 219.668 77.89 219.656 78.13C219.608 78.97 219.398 79.696 219.026 80.308C218.666 80.908 218.138 81.37 217.442 81.694C216.758 82.018 215.906 82.18 214.886 82.18ZM214.886 79.984C215.426 79.984 215.816 79.822 216.056 79.498C216.308 79.174 216.452 78.688 216.488 78.04C216.5 77.86 216.506 77.62 216.506 77.32C216.506 77.02 216.5 76.78 216.488 76.6C216.452 75.964 216.308 75.484 216.056 75.16C215.816 74.824 215.426 74.656 214.886 74.656C214.358 74.656 213.968 74.824 213.716 75.16C213.464 75.484 213.326 75.964 213.302 76.6C213.29 76.78 213.284 77.02 213.284 77.32C213.284 77.62 213.29 77.86 213.302 78.04C213.326 78.688 213.464 79.174 213.716 79.498C213.968 79.822 214.358 79.984 214.886 79.984ZM225.747 82.18C224.859 82.18 224.073 82.018 223.389 81.694C222.705 81.37 222.159 80.902 221.751 80.29C221.355 79.666 221.139 78.922 221.103 78.058C221.091 77.866 221.085 77.626 221.085 77.338C221.085 77.038 221.091 76.792 221.103 76.6C221.139 75.724 221.355 74.98 221.751 74.368C222.147 73.744 222.687 73.27 223.371 72.946C224.067 72.622 224.859 72.46 225.747 72.46C226.575 72.46 227.283 72.58 227.871 72.82C228.459 73.048 228.939 73.336 229.311 73.684C229.683 74.032 229.959 74.392 230.139 74.764C230.331 75.124 230.433 75.442 230.445 75.718C230.457 75.838 230.415 75.946 230.319 76.042C230.223 76.126 230.115 76.168 229.995 76.168H227.709C227.577 76.168 227.475 76.138 227.403 76.078C227.331 76.018 227.265 75.928 227.205 75.808C227.061 75.436 226.875 75.172 226.647 75.016C226.431 74.86 226.149 74.782 225.801 74.782C225.321 74.782 224.949 74.938 224.685 75.25C224.433 75.562 224.295 76.042 224.271 76.69C224.259 77.17 224.259 77.596 224.271 77.968C224.295 78.628 224.433 79.108 224.685 79.408C224.949 79.708 225.321 79.858 225.801 79.858C226.173 79.858 226.467 79.78 226.683 79.624C226.899 79.468 227.073 79.204 227.205 78.832C227.265 78.712 227.331 78.622 227.403 78.562C227.475 78.502 227.577 78.472 227.709 78.472H229.995C230.115 78.472 230.223 78.52 230.319 78.616C230.415 78.7 230.457 78.802 230.445 78.922C230.433 79.126 230.373 79.366 230.265 79.642C230.157 79.906 229.989 80.188 229.761 80.488C229.533 80.788 229.233 81.07 228.861 81.334C228.501 81.586 228.063 81.79 227.547 81.946C227.031 82.102 226.431 82.18 225.747 82.18Z" fill="#FF0000"/>
<path d="M10.6972 40.5016C8.02898 55.8147 8.377 59.5269 12.6693 61.8471C18.3537 64.9793 27.0543 62.0791 30.1865 56.0467C31.6215 54.278 36.7259 29.5969 36.8419 26.0007C35.5368 26.0007 32.9707 26.0007 24.6181 26.0007H13.3653L10.6972 40.5016Z" fill="#3195FD"/>
<path d="M37.377 40.7328C35.4049 52.1016 34.1288 56.2778 31.8086 59.294C27.6324 64.8624 22.76 66.9506 16.0316 66.3705C10.4632 65.7905 10.4632 65.7905 12.4353 68.1106C22.876 79.5954 44.3375 74.9551 52.342 59.294C53.6181 56.8579 55.8223 48.3893 57.3304 40.5008L59.9986 25.9998H49.9059H39.9292L37.377 40.7328Z" fill="#003399"/>
</svg>
